<?xml version="1.0" encoding="iso-8859-1"?>
<!-- Generator: Adobe Illustrator 19.0.0, SVG Export Plug-In . SVG Version: 6.00 Build 0)  -->
<svg version="1.1" id="Layer_1" xmlns="http://www.w3.org/2000/svg" xmlns:xlink="http://www.w3.org/1999/xlink" x="0px" y="0px"
	 viewBox="0 0 512 512" style="enable-background:new 0 0 512 512;" xml:space="preserve">
<path style="fill:#DC781E;" d="M367.486,11.13h-11.493c-38.766,0-74.013,15.347-99.992,40.279
	c-25.98-24.932-61.226-40.279-99.992-40.279h-11.493C64.829,11.13,0,75.96,0,155.645v89.225c0,68.38,26.628,132.667,74.98,181.02
	c48.353,48.352,112.64,74.98,181.02,74.98s132.667-26.628,181.02-74.98C485.372,377.537,512,313.249,512,244.87v-89.225
	C512,75.96,447.171,11.13,367.486,11.13z M89.043,155.645c0-30.586,24.884-55.471,55.471-55.471h11.493
	c30.586,0,55.471,24.884,55.471,55.471c0,22.567-13.483,42.7-34.35,51.292l-88.085,36.27V155.645z M256,411.826
	c-61.027,0-114.514-32.917-143.638-81.924l98.669-40.628c17.044-7.018,32.196-16.994,44.968-29.193
	c12.773,12.198,27.924,22.174,44.968,29.193l98.669,40.628C370.514,378.909,317.027,411.826,256,411.826z M422.957,243.207
	l-88.085-36.27c-20.866-8.593-34.35-28.725-34.35-51.292c0-30.586,24.884-55.471,55.471-55.471h11.493
	c30.586,0,55.471,24.884,55.471,55.471V243.207z"/>
<path style="fill:#C05501;" d="M278.261,499.902c-7.363,0.63-14.786,0.967-22.261,0.967c-68.38,0-132.667-26.628-181.02-74.98
	C26.628,377.537,0,313.249,0,244.87v-89.225C0,75.96,64.829,11.13,144.514,11.13h11.493c5.586,0,11.096,0.328,16.519,0.948
	c-71.938,8.22-128.004,69.464-128.004,143.566v89.225c0,68.38,26.628,132.667,74.98,181.02
	C162.568,468.954,218.28,494.768,278.261,499.902z"/>
<path style="fill:#F7A941;" d="M261.565,89.043v11.13c0,4.61-3.738,8.348-8.348,8.348c-4.61,0-8.348-3.738-8.348-8.348v-11.13
	c0-4.61,3.738-8.348,8.348-8.348C257.828,80.696,261.565,84.433,261.565,89.043z M364.522,36.174c-4.61,0-8.348,3.738-8.348,8.348
	v11.13c0,4.61,3.738,8.348,8.348,8.348s8.348-3.738,8.348-8.348v-11.13C372.87,39.912,369.132,36.174,364.522,36.174z
	 M464.696,258.783h-11.13c-4.61,0-8.348,3.738-8.348,8.348s3.738,8.348,8.348,8.348h11.13c4.61,0,8.348-3.738,8.348-8.348
	S469.306,258.783,464.696,258.783z M306.902,227.837c-3.26-3.26-8.546-3.26-11.805,0c-3.26,3.26-3.26,8.546,0,11.805l7.87,7.87
	c1.629,1.63,3.767,2.445,5.902,2.445c2.136,0,4.273-0.815,5.902-2.445c3.26-3.26,3.26-8.546,0-11.805L306.902,227.837z
	 M418.206,64.139c-3.26-3.26-8.546-3.26-11.805,0c-3.26,3.26-3.26,8.546,0,11.805l7.87,7.87c1.629,1.629,3.767,2.445,5.902,2.445
	c2.136,0,4.273-0.815,5.902-2.445c3.26-3.26,3.26-8.546,0-11.805L418.206,64.139z M481.729,172.184l-7.87-7.87
	c-3.26-3.26-8.546-3.26-11.805,0c-3.26,3.26-3.26,8.546,0,11.805l7.87,7.87c1.629,1.63,3.767,2.445,5.902,2.445
	c2.136,0,4.273-0.815,5.902-2.445C484.99,180.73,484.99,175.443,481.729,172.184z M141.913,36.174c-4.61,0-8.348,3.738-8.348,8.348
	v11.13c0,4.61,3.738,8.348,8.348,8.348c4.61,0,8.348-3.738,8.348-8.348v-11.13C150.261,39.912,146.523,36.174,141.913,36.174z
	 M186.435,236.522c-4.61,0-8.348,3.738-8.348,8.348V256c0,4.61,3.738,8.348,8.348,8.348c4.61,0,8.348-3.738,8.348-8.348v-11.13
	C194.783,240.259,191.045,236.522,186.435,236.522z M58.435,108.522h-11.13c-4.61,0-8.348,3.738-8.348,8.348
	s3.738,8.348,8.348,8.348h11.13c4.61,0,8.348-3.738,8.348-8.348S63.045,108.522,58.435,108.522z M242.087,192h-11.13
	c-4.61,0-8.348,3.738-8.348,8.348c0,4.61,3.738,8.348,8.348,8.348h11.13c4.61,0,8.348-3.738,8.348-8.348
	C250.435,195.738,246.697,192,242.087,192z M199.533,53.009l-7.87,7.87c-3.26,3.26-3.26,8.546,0,11.805
	c1.63,1.629,3.767,2.445,5.902,2.445c2.136,0,4.273-0.815,5.902-2.445l7.87-7.87c3.26-3.26,3.26-8.546,0-11.805
	C208.079,49.75,202.793,49.75,199.533,53.009z M43.707,186.574l-7.87,7.87c-3.26,3.26-3.26,8.546,0,11.805
	c1.629,1.63,3.767,2.445,5.902,2.445s4.273-0.815,5.902-2.445l7.87-7.87c3.26-3.26,3.26-8.546,0-11.805
	C52.253,183.315,46.967,183.315,43.707,186.574z"/>
<g>
</g>
<g>
</g>
<g>
</g>
<g>
</g>
<g>
</g>
<g>
</g>
<g>
</g>
<g>
</g>
<g>
</g>
<g>
</g>
<g>
</g>
<g>
</g>
<g>
</g>
<g>
</g>
<g>
</g>
</svg>
