<?xml version="1.0" encoding="iso-8859-1"?>
<!-- Generator: Adobe Illustrator 19.0.0, SVG Export Plug-In . SVG Version: 6.00 Build 0)  -->
<svg version="1.1" id="Layer_1" xmlns="http://www.w3.org/2000/svg" xmlns:xlink="http://www.w3.org/1999/xlink" x="0px" y="0px"
	 viewBox="0 0 270.109 270.109" style="enable-background:new 0 0 270.109 270.109;" xml:space="preserve">
<g>
	<path style="fill:#F0954F;" d="M192.848,45.004c1.889-11.131-3.135-23.83-12.257-30.461c-18.485-13.382-47.339,2.411-38.659,25.438
		c-1.527,0.201-3.054,0.522-4.621,0.683c-5.907-30.903,31.425-49.428,53.809-26.723c19.731,20.012,7.917,55.898-21.7,53.688
		c-0.12-1.406-0.201-2.773-0.241-4.139C179.667,62.043,190.919,56.337,192.848,45.004z"/>
	<path style="fill:#1D1D1B;" d="M191.04,8.234c24.754,20.535,14.105,66.748-21.178,63.292c3.255,25.679,15.592,52.081,5.666,77.92
		c-7.033,18.284-22.946,29.094-41.19,32.028c-0.764,21.057-0.844,39.945,4.38,59.555c8.56-2.17,20.254-3.536,27.125,2.25
		c2.371,2.009,6.269,11.413,2.853,13.743c-4.943,15.03-32.631,13.06-44.727,12.94c-11.413-0.121-36.73,1.889-44.325-10.046
		c-0.241,0-0.482-0.08-0.723-0.281c-5.546-4.903-1.326-13.422,3.898-16.757c7.113-4.541,16.717-3.737,24.875-2.612
		c1.567-9.404,3.014-18.767,3.617-28.331c0.683-10.167-0.442-20.656,1.407-30.662c-21.097-3.818-39.503-18.727-45.37-39.864
		c-3.978-14.306-0.482-28.974,3.215-42.878c6.47-24.312,8.238-45.41-0.161-69.36c-0.161-0.161-0.281-0.281-0.442-0.402
		c-1.045-0.241-1.527-2.009-0.362-2.572c20.535-9.926,43.602-12.9,65.985-8.439c0.321,0.08,0.563,0.201,0.723,0.362
		C145.63,0.278,172.756-6.916,191.04,8.234z M180.592,14.544c9.122,6.631,14.145,19.329,12.257,30.461
		c-1.929,11.332-13.181,17.039-23.669,18.485c0.04,1.366,0.121,2.733,0.241,4.139c29.617,2.21,41.432-33.676,21.7-53.688
		c-22.383-22.705-59.716-4.179-53.809,26.723c1.567-0.161,3.094-0.482,4.621-0.683C133.253,16.955,162.106,1.162,180.592,14.544z
		 M169.139,59.833c11.011-1.728,20.736-8.158,20.455-20.294c-0.201-8.519-4.179-16.958-11.051-22.022
		c-16.677-12.297-40.226,1.527-34.439,22.102c2.13-0.362,4.26-0.844,6.349-1.326c-1.165-0.603-2.21-1.487-2.933-2.733
		c-1.366-2.291-1.005-5.144,0.964-6.992c5.104-4.822,12.458-0.08,15.472,4.782c0.201,0.362,0.161,0.643,0.04,0.884
		c3.255-1.205,6.43-2.491,9.484-4.018c1.889-0.924,3.496,1.206,2.692,2.612c-0.04,0.08-0.04,0.161-0.12,0.241
		C171.028,41.83,169.219,50.791,169.139,59.833z M121.921,178.461c48.826,1.607,58.269-42.436,49.79-80.612
		c-1.487-6.55-3.014-12.98-4.179-19.329c-26.965,19.57-62.408,20.334-88.609-0.482c-1.005,5.988-2.371,12.015-3.978,18.124
		c-4.621,17.842-9.323,36.368-0.281,53.809C83.905,167.731,102.27,177.778,121.921,178.461z M166.848,74.38
		c-0.08-0.482-0.161-0.924-0.201-1.407c-1.848-12.498-1.728-24.754,3.858-36.971c-26.603,12.257-72.173,15.954-95.923-2.974
		c6.028,13.542,6.751,27.005,4.943,40.869c0.08-0.04,0.121-0.121,0.241-0.161c26.201-10.046,59.033-13.06,85.314-1.607
		c0.482,0.241,0.683,0.603,0.683,0.965c0,0.804-0.804,1.648-1.728,1.487c-29.496-5.345-54.371-7.515-83.586,1.648
		c-0.121,0.04-0.161,0-0.241,0.04c27.407,17.601,58.711,18.124,85.837-1.527C166.326,74.541,166.567,74.46,166.848,74.38z
		 M166.487,253.447c0.04-0.964,0-1.929-0.121-2.893c-0.643-2.371-2.049-4.179-4.22-5.465c-2.371-1.447-5.505-1.969-8.158-2.13
		c-4.862-0.362-9.645,0.402-14.386,1.447c0.884,2.934,1.849,5.867,2.974,8.801c0.603,1.527-1.808,2.451-2.572,1.085
		c-1.728-3.054-3.175-6.309-4.42-9.604c-0.482-0.402-0.683-1.045-0.603-1.648c-6.791-19.209-6.269-41.552-3.134-61.203
		c-4.22,0.522-8.6,0.603-12.98,0.281c-1.768-0.12-3.536-0.362-5.264-0.683c6.269,21.218,0.683,51.478-5.304,72.294
		c-0.482,1.768-3.014,1.005-2.692-0.764c0.522-3.215,1.045-6.43,1.607-9.604c-11.051,0.201-27.567-1.406-26.844,12.417
		c7.033,11.372,28.612,10.167,40.105,10.488c5.626,0.161,11.734,0.723,17.32-0.201C143.42,265.141,163.754,259.073,166.487,253.447z
		 M162.629,34.757c-0.121-0.04-0.241-0.04-0.322-0.12c-2.934-2.331-5.787-6.711-10.167-5.224c-2.733,0.884-3.657,3.737-1.366,5.827
		c1.206,1.085,2.813,1.527,4.42,1.849C157.726,36.405,160.177,35.601,162.629,34.757z M134.901,21.255c-0.121,0-0.201,0.04-0.281,0
		c-21.74-3.295-41.994-1.005-62.408,6.912c18.003,10.689,40.507,14.748,62.248,12.819C132.329,33.712,132.731,27.041,134.901,21.255
		z"/>
	<path style="fill:#F0954F;" d="M189.593,39.539c0.281,12.136-9.444,18.566-20.455,20.294c0.08-9.042,1.889-18.003,6.912-26.764
		c0.08-0.08,0.08-0.161,0.12-0.241c0.804-1.406-0.804-3.536-2.692-2.612c-3.054,1.527-6.229,2.813-9.484,4.018
		c0.12-0.241,0.161-0.522-0.04-0.884c-3.014-4.862-10.368-9.604-15.472-4.782c-1.969,1.849-2.331,4.702-0.964,6.992
		c0.723,1.246,1.768,2.13,2.933,2.733c-2.09,0.482-4.219,0.964-6.349,1.326c-5.787-20.575,17.762-34.399,34.439-22.102
		C185.414,22.581,189.392,31.02,189.593,39.539z M186.499,36.244c2.009-2.21-0.884-5.706-2.13-7.515
		c-1.246-1.808-3.175-5.546-5.746-5.465c-2.291,0.121-2.612,2.853-4.38,3.657c-1.005,0.482-0.281,2.09,0.723,1.768
		c1.125-0.362,1.768-1.085,2.532-1.929c0.563-0.603,0.723-1.045,1.487-0.764c0.804,0.322,1.688,2.049,2.17,2.733
		c0.643,0.924,3.858,4.702,2.612,5.706c-0.402,0.362-2.612,0-3.175,0.04c-0.965,0-1.728-0.04-2.652,0.321
		c-1.005,0.402-1.005,1.648,0,2.049c1.567,0.603,3.376,0.362,5.023,0.321C184.168,37.168,185.615,37.249,186.499,36.244z
		 M184.49,49.023c2.893-4.179-4.943-8.118-8.037-9.042c-1.206-0.402-1.607,1.407-0.482,1.848c1.487,0.603,2.853,1.407,4.059,2.492
		c0.442,0.402,0.884,0.804,1.286,1.286c1.005,1.165,0.804,1.527,0.04,2.652c-0.522,0.764-2.17,2.813-3.014,2.572
		c-0.402-0.121-1.567-1.768-1.849-2.09c-0.563-0.603-0.924-0.924-1.648-1.366c-0.763-0.442-2.049,0.321-1.648,1.246
		c0.603,1.407,1.487,2.371,2.532,3.496c0.723,0.844,1.447,1.808,2.652,1.929c1.005,0.121,1.768-0.402,2.492-1.085
		C182.079,51.796,183.525,50.429,184.49,49.023z M171.711,28.689c2.492-5.345,0-15.672-7.635-14.186
		c-8.76,1.648-0.241,13.824,2.893,17.039c0.522,0.522,1.366-0.161,1.045-0.844c-0.964-1.889-2.049-3.737-3.014-5.626
		c-0.563-1.165-1.125-2.371-1.607-3.617c-0.643-1.688-1.286-3.255,0.643-4.219c2.692-1.406,5.505,1.487,6.229,3.858
		c0.723,2.371-0.161,4.742-0.362,7.073C169.822,29.131,171.309,29.533,171.711,28.689z"/>
	<path style="fill:#1D1D1B;" d="M184.369,28.729c1.246,1.808,4.139,5.305,2.13,7.515c-0.884,1.005-2.331,0.924-3.536,0.924
		c-1.648,0.04-3.456,0.281-5.023-0.321c-1.005-0.402-1.005-1.648,0-2.049c0.924-0.362,1.688-0.321,2.652-0.321
		c0.563-0.04,2.773,0.321,3.175-0.04c1.246-1.005-1.969-4.782-2.612-5.706c-0.482-0.683-1.366-2.411-2.17-2.733
		c-0.763-0.281-0.924,0.161-1.487,0.764c-0.764,0.844-1.406,1.567-2.532,1.929c-1.005,0.322-1.728-1.286-0.723-1.768
		c1.768-0.804,2.09-3.536,4.38-3.657C181.194,23.184,183.123,26.921,184.369,28.729z"/>
	<path style="fill:#1D1D1B;" d="M176.453,39.981c3.094,0.924,10.93,4.862,8.037,9.042c-0.965,1.406-2.411,2.773-3.617,3.938
		c-0.723,0.683-1.487,1.206-2.492,1.085c-1.206-0.121-1.929-1.085-2.652-1.929c-1.045-1.125-1.929-2.09-2.532-3.496
		c-0.402-0.924,0.884-1.688,1.648-1.246c0.723,0.442,1.085,0.764,1.648,1.366c0.281,0.321,1.447,1.969,1.849,2.09
		c0.844,0.241,2.492-1.808,3.014-2.572c0.764-1.125,0.964-1.487-0.04-2.652c-0.402-0.482-0.844-0.884-1.286-1.286
		c-1.206-1.085-2.572-1.889-4.059-2.492C174.845,41.388,175.247,39.579,176.453,39.981z"/>
	<path style="fill:#F0954F;" d="M171.711,97.849c8.479,38.176-0.964,82.22-49.79,80.612c-19.651-0.683-38.016-10.73-47.258-28.492
		c-9.042-17.441-4.34-35.966,0.281-53.809c1.607-6.108,2.974-12.136,3.978-18.124c26.201,20.816,61.645,20.053,88.609,0.482
		C168.697,84.869,170.224,91.298,171.711,97.849z M168.456,121.437c0.804-0.763,0-2.17-1.085-1.848
		c-0.804,0.241-1.849,0.683-2.693,0.402c-0.723-0.241-1.366-1.527-0.201-1.808c1.206-0.281,0.964-2.17-0.281-2.17
		c-2.411,0.04-3.617,2.692-2.652,4.742C162.789,123.447,166.607,123.326,168.456,121.437z M168.134,111.431
		c0.723-3.978-4.26-5.505-6.43-2.331c-0.603,0.924,0.844,2.049,1.567,1.206c1.206-1.366,2.733-0.402,3.094,1.125
		C166.567,112.275,167.973,112.315,168.134,111.431z M160.861,105.444c0.804-0.12,0.804-1.447,0-1.607
		c-1.407-0.281-5.626-0.723-3.778-3.094c0.362-0.522-0.362-1.125-0.844-0.844c-1.407,0.764-1.527,2.612-0.723,3.938
		C156.641,105.645,158.972,105.805,160.861,105.444z M153.788,148.241c0.563-0.924-0.804-1.688-1.406-0.844
		c-1.607,2.21-3.777,3.536-6.47,3.938c-0.683,0.12-0.522,1.246,0.201,1.246C149.287,152.581,152.18,150.974,153.788,148.241z
		 M138.397,98.692c0.764-0.442,0.08-1.567-0.683-1.165c-2.853,1.366-5.988,1.808-9.082,1.165c-0.643-0.121-0.884,0.763-0.281,0.964
		C131.766,100.782,135.262,100.461,138.397,98.692z M133.213,97.206c0.723-0.241,0.522-1.206-0.201-1.286
		c-2.813-0.362-5.706-0.12-8.559-0.402c-0.764-0.08-0.924,1.165-0.161,1.366C127.145,97.567,130.319,98.049,133.213,97.206z
		 M112.879,126.782c0.522,0.643,1.567-0.201,1.125-0.844c-1.125-1.688-1.326-3.576-0.763-5.505c0.281-0.844-1.085-1.447-1.447-0.603
		C110.709,122.322,111.151,124.733,112.879,126.782z M106.208,171.107c0.964,0.161,1.366-1.205,0.402-1.447
		c-4.22-1.165-7.836-2.893-11.533-5.144c-0.522-0.322-1.125,0.442-0.683,0.884C97.608,168.334,101.948,170.343,106.208,171.107z
		 M97.247,170.424c0.522,0.12,0.964-0.522,0.522-0.924c-2.049-1.969-4.903-3.255-7.233-4.983c-0.603-0.442-1.286,0.522-0.764,1.005
		C91.822,167.49,94.393,169.821,97.247,170.424z M83.383,130.479c0.322,0.884,1.728,0.804,1.688-0.201
		c-0.241-4.742-7.113-4.822-7.917-0.281c-0.201,1.045,1.366,1.527,1.648,0.442C79.485,127.666,82.498,128.108,83.383,130.479z
		 M81.333,122.482c1.206,0,1.165-1.728,0-1.849c-0.683-0.08-3.737-0.522-2.532-1.889c0.643-0.723-0.321-1.688-1.045-1.085
		c-0.964,0.804-1.085,2.049-0.522,3.094C78.038,122.241,79.806,122.482,81.333,122.482z M81.052,135.985
		c0.12-0.764-0.844-1.246-1.286-0.523c-0.522,0.804-0.884,1.165-1.889,1.206c-1.286,0.04-2.09-0.884-1.768-2.331
		c0.121-0.643-0.763-0.884-1.005-0.281C73.577,138.315,80.248,140.244,81.052,135.985z"/>
	<path style="fill:#1D1D1B;" d="M164.075,14.503c7.635-1.487,10.127,8.841,7.635,14.186c-0.402,0.844-1.889,0.442-1.808-0.522
		c0.201-2.331,1.085-4.702,0.362-7.073s-3.536-5.264-6.229-3.858c-1.929,0.965-1.286,2.532-0.643,4.219
		c0.482,1.246,1.045,2.451,1.607,3.617c0.964,1.889,2.049,3.737,3.014,5.626c0.321,0.683-0.522,1.366-1.045,0.844
		C163.834,28.327,155.315,16.151,164.075,14.503z"/>
	<path style="fill:#1D1D1B;" d="M167.371,119.589c1.085-0.322,1.889,1.085,1.085,1.848c-1.848,1.889-5.666,2.009-6.912-0.683
		c-0.965-2.049,0.241-4.702,2.652-4.742c1.246,0,1.487,1.889,0.281,2.17c-1.165,0.281-0.522,1.567,0.201,1.808
		C165.522,120.272,166.567,119.83,167.371,119.589z"/>
	<path style="fill:#1D1D1B;" d="M161.704,109.1c2.17-3.175,7.153-1.648,6.43,2.331c-0.161,0.884-1.567,0.844-1.768,0
		c-0.362-1.527-1.889-2.492-3.094-1.125C162.548,111.15,161.102,110.025,161.704,109.1z"/>
	<path style="fill:#F0954F;" d="M166.647,72.974c0.04,0.482,0.121,0.924,0.201,1.407c-0.281,0.08-0.522,0.161-0.804,0.362
		c-27.125,19.651-58.43,19.128-85.837,1.527c0.08-0.04,0.12,0,0.241-0.04c29.215-9.162,54.09-6.992,83.586-1.648
		c0.924,0.161,1.728-0.683,1.728-1.487L166.647,72.974z M106.65,83.462c1.286,0.201,1.567-1.607,0.241-1.768
		c-2.411-0.241-4.541-1.125-6.671-2.25c-0.603-0.322-1.366,0.522-0.763,1.005C101.546,82.136,104.038,83.06,106.65,83.462z"/>
	<path style="fill:#99D9F1;" d="M166.647,72.974l-0.884,0.121c0-0.362-0.201-0.723-0.683-0.965
		c-26.281-11.453-59.113-8.439-85.314,1.607c-0.12,0.04-0.161,0.121-0.241,0.161c1.808-13.864,1.085-27.326-4.943-40.869
		c23.75,18.927,69.32,15.23,95.923,2.974C164.919,48.219,164.799,60.476,166.647,72.974z M155.757,62.565
		c0.643,0.442,1.447-0.563,0.844-1.085c-2.411-2.17-5.264-3.014-8.519-2.773c-0.844,0.08-0.884,1.406,0,1.406
		C150.895,60.074,153.466,61.038,155.757,62.565z M150.854,64.253c0.804,0.321,1.085-0.844,0.522-1.286
		c-2.934-2.25-6.872-2.17-10.127-0.683c-0.482,0.201-0.121,0.844,0.322,0.764C144.867,62.284,147.8,63.008,150.854,64.253z
		 M101.386,51.675c1.005-0.12,1.085-1.607,0-1.607c-3.215,0-6.269-0.442-9.363-1.366c-0.804-0.241-1.406,1.045-0.603,1.407
		C94.554,51.514,97.97,52.117,101.386,51.675z M97.247,48.38c0.723,0.161,1.045-0.965,0.281-1.165
		c-2.532-0.683-5.023-1.527-7.515-2.411c-0.523-0.201-0.844,0.603-0.362,0.844C92.063,46.893,94.594,47.817,97.247,48.38z"/>
	<path style="fill:#99D9F1;" d="M166.366,250.554c0.121,0.964,0.161,1.929,0.121,2.893c-2.733,5.626-23.067,11.694-28.693,12.618
		c-5.586,0.924-11.694,0.362-17.32,0.201c-11.493-0.322-33.073,0.884-40.105-10.488c-0.723-13.824,15.793-12.217,26.844-12.417
		c-0.563,3.175-1.085,6.389-1.607,9.604c-0.322,1.768,2.21,2.532,2.692,0.764c5.988-20.816,11.574-51.076,5.304-72.294
		c1.728,0.321,3.496,0.563,5.264,0.683c4.38,0.322,8.76,0.241,12.98-0.281c-3.134,19.651-3.657,41.994,3.134,61.203
		c-0.08,0.603,0.121,1.246,0.603,1.648c1.246,3.295,2.692,6.55,4.42,9.604c0.764,1.366,3.175,0.442,2.572-1.085
		c-1.125-2.934-2.09-5.867-2.974-8.801c4.742-1.045,9.524-1.808,14.386-1.447c2.652,0.161,5.787,0.683,8.158,2.13
		C164.317,246.375,165.723,248.183,166.366,250.554z M158.208,255.256c2.572-1.808,3.938-4.581,3.456-7.716
		c-0.201-1.165-1.969-0.844-2.009,0.241c-0.08,2.371-0.844,4.38-2.612,5.988C156.239,254.492,157.324,255.859,158.208,255.256z
		 M128.149,193.209c0.201-0.844-0.965-1.085-1.286-0.322c-1.206,2.974-1.567,5.988-1.567,9.202c0,0.884,1.326,0.884,1.407,0
		C126.863,199.116,127.506,196.143,128.149,193.209z M118.264,232.229c0.08-0.764-1.165-0.924-1.326-0.161
		c-0.764,3.536-1.125,7.113-1.447,10.73c-0.08,0.603,0.964,0.764,1.085,0.121C117.299,239.382,117.982,235.846,118.264,232.229z
		 M114.044,239.744c0.04-0.804-1.125-0.764-1.246,0c-0.241,2.21-0.683,4.34-1.366,6.43c-0.201,0.563,0.723,0.964,1.005,0.402
		C113.401,244.365,113.964,242.155,114.044,239.744z M96.162,259.475c1.005,0.161,1.487-1.286,0.442-1.567
		c-2.773-0.643-5.023-2.331-6.389-4.863c-0.522-0.964-1.889-0.121-1.447,0.884C90.134,256.944,92.866,259.033,96.162,259.475z
		 M90.174,259.435c0.643,0.201,1.246-0.723,0.683-1.125c-2.692-2.09-4.541-4.34-5.425-7.675c-0.201-0.884-1.648-0.723-1.567,0.201
		C84.106,254.613,86.517,258.27,90.174,259.435z"/>
	<path style="fill:#F0954F;" d="M162.307,34.636c0.08,0.08,0.201,0.08,0.322,0.12c-2.451,0.844-4.903,1.648-7.434,2.331
		c-1.607-0.322-3.215-0.764-4.42-1.849c-2.291-2.09-1.366-4.943,1.366-5.827C156.52,27.925,159.374,32.306,162.307,34.636z"/>
	<path style="fill:#1D1D1B;" d="M161.664,247.54c0.482,3.134-0.884,5.907-3.456,7.716c-0.884,0.603-1.969-0.764-1.165-1.487
		c1.768-1.607,2.532-3.617,2.612-5.988C159.695,246.696,161.463,246.375,161.664,247.54z"/>
	<path style="fill:#1D1D1B;" d="M160.861,103.836c0.804,0.161,0.804,1.487,0,1.607c-1.889,0.362-4.22,0.201-5.345-1.607
		c-0.804-1.326-0.683-3.175,0.723-3.938c0.482-0.281,1.206,0.321,0.844,0.844C155.235,103.113,159.454,103.555,160.861,103.836z"/>
	<path style="fill:#1D1D1B;" d="M156.601,61.48c0.603,0.522-0.201,1.527-0.844,1.085c-2.291-1.527-4.862-2.492-7.675-2.451
		c-0.884,0-0.844-1.326,0-1.406C151.337,58.467,154.19,59.31,156.601,61.48z"/>
	<path style="fill:#1D1D1B;" d="M152.381,147.397c0.603-0.844,1.969-0.08,1.406,0.844c-1.607,2.733-4.501,4.34-7.675,4.34
		c-0.723,0-0.884-1.125-0.201-1.246C148.604,150.934,150.774,149.608,152.381,147.397z"/>
	<path style="fill:#1D1D1B;" d="M151.377,62.967c0.563,0.442,0.281,1.607-0.522,1.286c-3.054-1.246-5.988-1.969-9.283-1.206
		c-0.442,0.08-0.804-0.563-0.322-0.764C144.505,60.797,148.443,60.717,151.377,62.967z"/>
	<path style="fill:#1D1D1B;" d="M137.714,97.527c0.764-0.402,1.447,0.723,0.683,1.165c-3.135,1.768-6.631,2.09-10.046,0.964
		c-0.603-0.201-0.362-1.085,0.281-0.964C131.726,99.335,134.86,98.893,137.714,97.527z"/>
	<path style="fill:#99D9F1;" d="M134.619,21.255c0.08,0.04,0.161,0,0.281,0c-2.17,5.787-2.572,12.457-0.442,19.731
		c-21.74,1.929-44.244-2.13-62.248-12.819C92.625,20.25,112.879,17.959,134.619,21.255z M115.973,22.983
		c0.884-0.04,0.884-1.406,0-1.447c-2.532-0.08-5.023,0.04-7.555,0.161c-0.723,0.04-0.723,1.085,0,1.125
		C110.95,22.942,113.441,23.063,115.973,22.983z"/>
	<path style="fill:#1D1D1B;" d="M133.012,95.92c0.723,0.08,0.924,1.045,0.201,1.286c-2.893,0.844-6.068,0.362-8.921-0.322
		c-0.763-0.201-0.603-1.447,0.161-1.366C127.306,95.799,130.199,95.558,133.012,95.92z"/>
	<path style="fill:#1D1D1B;" d="M126.863,192.888c0.322-0.764,1.487-0.522,1.286,0.322c-0.643,2.934-1.286,5.907-1.447,8.881
		c-0.08,0.884-1.407,0.884-1.407,0C125.296,198.875,125.658,195.861,126.863,192.888z"/>
	<path style="fill:#1D1D1B;" d="M116.938,232.069c0.161-0.763,1.407-0.603,1.326,0.161c-0.281,3.617-0.965,7.153-1.688,10.689
		c-0.121,0.643-1.165,0.482-1.085-0.121C115.812,239.182,116.174,235.605,116.938,232.069z"/>
	<path style="fill:#1D1D1B;" d="M115.973,21.536c0.884,0.04,0.884,1.406,0,1.447c-2.532,0.08-5.023-0.04-7.555-0.161
		c-0.723-0.04-0.723-1.085,0-1.125C110.95,21.576,113.441,21.456,115.973,21.536z"/>
	<path style="fill:#1D1D1B;" d="M114.004,125.938c0.442,0.643-0.603,1.487-1.125,0.844c-1.728-2.049-2.17-4.461-1.085-6.952
		c0.362-0.844,1.728-0.241,1.447,0.603C112.678,122.362,112.879,124.25,114.004,125.938z"/>
	<path style="fill:#1D1D1B;" d="M112.798,239.744c0.121-0.764,1.286-0.804,1.246,0c-0.08,2.411-0.643,4.621-1.607,6.831
		c-0.281,0.563-1.206,0.161-1.005-0.402C112.115,244.084,112.557,241.954,112.798,239.744z"/>
	<path style="fill:#1D1D1B;" d="M106.891,81.694c1.326,0.161,1.045,1.969-0.241,1.768c-2.612-0.402-5.104-1.326-7.193-3.014
		c-0.603-0.482,0.161-1.326,0.763-1.005C102.35,80.569,104.48,81.453,106.891,81.694z"/>
	<path style="fill:#1D1D1B;" d="M106.61,169.66c0.965,0.241,0.563,1.607-0.402,1.447c-4.26-0.763-8.6-2.773-11.815-5.706
		c-0.442-0.442,0.161-1.206,0.683-0.884C98.774,166.767,102.39,168.495,106.61,169.66z"/>
	<path style="fill:#1D1D1B;" d="M101.386,50.068c1.085,0,1.005,1.487,0,1.607c-3.416,0.442-6.832-0.161-9.966-1.567
		c-0.804-0.362-0.201-1.648,0.603-1.407C95.117,49.626,98.171,50.068,101.386,50.068z"/>
	<path style="fill:#1D1D1B;" d="M97.769,169.5c0.442,0.402,0,1.045-0.522,0.924c-2.853-0.603-5.425-2.934-7.475-4.903
		c-0.522-0.482,0.161-1.447,0.764-1.005C92.866,166.245,95.72,167.53,97.769,169.5z"/>
	<path style="fill:#1D1D1B;" d="M97.528,47.215c0.764,0.201,0.442,1.326-0.281,1.165c-2.652-0.563-5.184-1.487-7.595-2.733
		c-0.482-0.241-0.161-1.045,0.362-0.844C92.505,45.688,94.996,46.531,97.528,47.215z"/>
	<path style="fill:#1D1D1B;" d="M96.604,257.908c1.045,0.281,0.563,1.728-0.442,1.567c-3.295-0.442-6.028-2.532-7.394-5.546
		c-0.442-1.005,0.924-1.848,1.447-0.884C91.58,255.577,93.831,257.265,96.604,257.908z"/>
	<path style="fill:#1D1D1B;" d="M90.857,258.31c0.563,0.402-0.04,1.326-0.683,1.125c-3.657-1.165-6.068-4.822-6.309-8.6
		c-0.08-0.924,1.366-1.085,1.567-0.201C86.316,253.97,88.165,256.22,90.857,258.31z"/>
	<path style="fill:#1D1D1B;" d="M85.07,130.278c0.04,1.005-1.366,1.085-1.688,0.201c-0.884-2.371-3.898-2.813-4.581-0.04
		c-0.281,1.085-1.849,0.603-1.648-0.442C77.958,125.456,84.829,125.536,85.07,130.278z"/>
	<path style="fill:#1D1D1B;" d="M81.333,120.634c1.165,0.121,1.206,1.849,0,1.849c-1.527,0-3.295-0.241-4.099-1.728
		c-0.563-1.045-0.442-2.291,0.522-3.094c0.723-0.603,1.688,0.362,1.045,1.085C77.596,120.111,80.65,120.553,81.333,120.634z"/>
	<path style="fill:#1D1D1B;" d="M79.766,135.462c0.442-0.723,1.407-0.241,1.286,0.523c-0.804,4.26-7.475,2.331-5.948-1.929
		c0.241-0.603,1.125-0.362,1.005,0.281c-0.322,1.447,0.482,2.371,1.768,2.331C78.882,136.628,79.243,136.266,79.766,135.462z"/>
</g>
<g>
</g>
<g>
</g>
<g>
</g>
<g>
</g>
<g>
</g>
<g>
</g>
<g>
</g>
<g>
</g>
<g>
</g>
<g>
</g>
<g>
</g>
<g>
</g>
<g>
</g>
<g>
</g>
<g>
</g>
</svg>
