<?xml version="1.0" encoding="iso-8859-1"?>
<!-- Generator: Adobe Illustrator 19.0.0, SVG Export Plug-In . SVG Version: 6.00 Build 0)  -->
<svg version="1.1" id="Layer_1" xmlns="http://www.w3.org/2000/svg" xmlns:xlink="http://www.w3.org/1999/xlink" x="0px" y="0px"
	 viewBox="0 0 496.933 496.933" style="enable-background:new 0 0 496.933 496.933;" xml:space="preserve">
<g transform="translate(1 1)">
	<path style="fill:#A46F3E;" d="M435.2,238.933c-25.446,0-47.607-13.952-59.349-34.603c-2.927,0.307-5.905,0.469-8.917,0.469
		c-47.13,0-85.333-38.204-85.333-85.333c0-13.312,3.14-25.865,8.576-37.094C270.276,75.349,256,56.431,256,34.133
		c0-12.681,4.634-24.26,12.262-33.195C261.402,0.367,254.481,0,247.467,0C110.797,0,0,110.797,0,247.467
		s110.797,247.467,247.467,247.467s247.467-110.797,247.467-247.467c0-13.193-1.058-26.129-3.046-38.767
		C479.633,226.935,458.82,238.933,435.2,238.933"/>
	<path style="fill:none;stroke:#A46F3E;stroke-width:2;" d="M435.2,238.933c-25.446,0-47.607-13.952-59.349-34.603
		c-2.927,0.307-5.905,0.469-8.917,0.469c-47.13,0-85.333-38.204-85.333-85.333c0-13.312,3.14-25.865,8.576-37.094
		C270.276,75.349,256,56.431,256,34.133c0-12.681,4.634-24.26,12.262-33.195C261.402,0.367,254.481,0,247.467,0
		C110.797,0,0,110.797,0,247.467s110.797,247.467,247.467,247.467s247.467-110.797,247.467-247.467
		c0-13.193-1.058-26.129-3.046-38.767C479.633,226.935,458.82,238.933,435.2,238.933L435.2,238.933z"/>
	<path style="fill:#6A3311;" d="M179.2,179.2c0-23.561-19.106-42.667-42.667-42.667S93.867,155.639,93.867,179.2
		s19.106,42.667,42.667,42.667S179.2,202.761,179.2,179.2"/>
	<path style="fill:none;stroke:#6A3311;stroke-width:2;" d="M179.2,179.2c0-23.561-19.106-42.667-42.667-42.667
		S93.867,155.639,93.867,179.2s19.106,42.667,42.667,42.667S179.2,202.761,179.2,179.2L179.2,179.2z"/>
	<path style="fill:#6A3311;" d="M179.2,358.4c0-18.85-15.283-34.133-34.133-34.133s-34.133,15.283-34.133,34.133
		s15.283,34.133,34.133,34.133S179.2,377.25,179.2,358.4"/>
	<path style="fill:none;stroke:#6A3311;stroke-width:2;" d="M179.2,358.4c0-18.85-15.283-34.133-34.133-34.133
		s-34.133,15.283-34.133,34.133s15.283,34.133,34.133,34.133S179.2,377.25,179.2,358.4L179.2,358.4z"/>
	<path style="fill:#6A3311;" d="M375.467,358.4c0-32.99-26.743-59.733-59.733-59.733S256,325.41,256,358.4
		s26.743,59.733,59.733,59.733S375.467,391.39,375.467,358.4"/>
	<path style="fill:none;stroke:#6A3311;stroke-width:2;" d="M375.467,358.4c0-32.99-26.743-59.733-59.733-59.733
		S256,325.41,256,358.4s26.743,59.733,59.733,59.733S375.467,391.39,375.467,358.4L375.467,358.4z"/>
	<path style="fill:#6A3311;" d="M283.803,100.388c1.468-6.298,3.618-12.331,6.374-18.014c-19.9-7.023-34.176-25.941-34.176-48.239
		c0-2.893,0.307-5.7,0.768-8.457c-0.265-0.009-0.503-0.077-0.768-0.077c-23.569,0-42.667,19.098-42.667,42.667
		c0,23.561,19.098,42.667,42.667,42.667C266.677,110.935,276.32,106.873,283.803,100.388"/>
	<path style="fill:none;stroke:#6A3311;stroke-width:2;" d="M283.803,100.388c1.468-6.298,3.618-12.331,6.374-18.014
		c-19.9-7.023-34.176-25.941-34.176-48.239c0-2.893,0.307-5.7,0.768-8.457c-0.265-0.009-0.503-0.077-0.768-0.077
		c-23.569,0-42.667,19.098-42.667,42.667c0,23.561,19.098,42.667,42.667,42.667C266.677,110.935,276.32,106.873,283.803,100.388
		L283.803,100.388z"/>
</g>
<g>
</g>
<g>
</g>
<g>
</g>
<g>
</g>
<g>
</g>
<g>
</g>
<g>
</g>
<g>
</g>
<g>
</g>
<g>
</g>
<g>
</g>
<g>
</g>
<g>
</g>
<g>
</g>
<g>
</g>
</svg>
